<svg xmlns="http://www.w3.org/2000/svg" width="381" height="194" fill="none" viewBox="0 0 381 194"><g clip-path="url(#clip0_1865_198367)"><rect width="381" height="194.31" fill="#D4AAF6"/><g clip-path="url(#clip1_1865_198367)"><rect width="272.832" height="167.123" fill="#fff" transform="translate(54.576 27.3745)"/><g clip-path="url(#clip2_1865_198367)"><rect width="51.284" height="5.923" x="128.162" y="113.562" fill="#E0E0E0" rx="1.795"/><rect width="74.944" height="3.59" x="128.417" y="89.788" fill="#E0E0E0" rx="1.795"/><rect width="35.283" height="3.385" x="142.521" y="123.863" fill="#E0E0E0" rx="1.692"/><rect width="94.24" height="3.59" x="128.417" y="96.071" fill="#E0E0E0" rx="1.795"/><rect width="44.31" height="3.385" x="142.521" y="131.459" fill="#E0E0E0" rx="1.692"/><rect width="33.209" height="3.59" x="128.417" y="102.354" fill="#E0E0E0" rx="1.795"/><rect width="35.283" height="3.385" x="142.521" y="139.055" fill="#E0E0E0" rx="1.692"/><ellipse cx="136.506" cy="125.662" fill="#007CBA" rx="1.358" ry="1.399"/><rect width="10.755" height="5.497" x="128.412" y="122.913" stroke="#BBB" stroke-width=".5" rx="2.748"/><ellipse cx="131.46" cy="133.258" fill="#CCC" rx="1.358" ry="1.399"/><rect width="10.755" height="5.497" x="128.412" y="130.51" stroke="#BBB" stroke-width=".5" rx="2.748"/><ellipse cx="136.506" cy="140.855" fill="#007CBA" rx="1.358" ry="1.399"/><rect width="10.755" height="5.497" x="128.412" y="138.106" stroke="#BBB" stroke-width=".5" rx="2.748"/></g><rect width="51.284" height="5.923" x="128.048" y="74.233" fill="#E0E0E0" rx="1.795"/><g clip-path="url(#clip3_1865_198367)"><rect width="37.257" height="14.793" x="128.347" y="155.979" fill="#E0E0E0" rx="1.795"/><rect width="37.257" height="14.793" x="169.097" y="155.979" fill="#E0E0E0" opacity=".6" rx="1.795"/><rect width="37.257" height="14.793" x="209.847" y="155.979" fill="#E0E0E0" opacity=".6" rx="1.795"/><rect width="51.284" height="5.923" x="128.414" y="177.969" fill="#E0E0E0" rx="1.795"/><rect width="35.283" height="3.385" x="128.414" y="188.124" fill="#E0E0E0" rx="1.692"/></g><g clip-path="url(#clip4_1865_198367)"><mask id="path-20-inside-1_1865_198367" fill="#fff"><path d="M54.3712 27.113H327.668V57.1802H54.3712V27.113Z"/></mask><path fill="#fff" d="M54.3712 27.113H327.668V57.1802H54.3712V27.113Z"/><rect width="60.948" height="4.658" x="160.123" y="34.312" fill="#E0E0E0" rx="1.795"/><rect width="33.376" height="9.74" x="288.488" y="31.771" fill="#007CBA" rx="1.795"/><rect width="24.669" height="4.658" x="258.981" y="34.312" fill="#E0E0E0" rx="1.795"/><rect width="21.283" height="3.388" x="125.732" y="48.411" fill="#E0E0E0" rx="1.694"/><rect width="21.283" height="1.694" x="125.732" y="55.611" fill="#007CBA"/><rect width="21.283" height="3.388" x="179.908" y="48.411" fill="#E0E0E0" rx="1.694"/><rect width="21.283" height="3.388" x="152.82" y="48.411" fill="#E0E0E0" rx="1.694"/><rect width="21.283" height="3.388" x="206.996" y="48.411" fill="#E0E0E0" rx="1.694"/><rect width="21.283" height="3.388" x="234.083" y="48.411" fill="#E0E0E0" rx="1.694"/><rect width="17.951" height="17.951" fill="#23282D" transform="translate(54.127 26.9258)"/><path fill="#fff" fill-rule="evenodd" d="M67.6536 35.7083C67.6536 33.0946 65.5234 30.9648 62.9093 30.9648C60.2904 30.9648 58.1649 33.0946 58.1649 35.7083C58.1649 38.3266 60.2904 40.4517 62.9093 40.4517C65.5234 40.4517 67.6536 38.3266 67.6536 35.7083ZM61.8561 38.2555L60.2382 33.9153C60.4992 33.9058 60.7933 33.8773 60.7933 33.8773C61.0305 33.8489 61.0021 33.3413 60.7649 33.3508C60.7649 33.3508 60.0769 33.403 59.6404 33.403C59.555 33.403 59.4649 33.403 59.3653 33.3983C60.1196 32.2409 61.4243 31.4914 62.9093 31.4914C64.0147 31.4914 65.0205 31.9041 65.7796 32.6014C65.457 32.5492 64.9968 32.7864 64.9968 33.3508C64.9968 33.6582 65.1605 33.9219 65.3446 34.2184L65.3446 34.2184L65.3446 34.2184C65.3707 34.2605 65.3973 34.3033 65.4238 34.3469C65.5899 34.6363 65.6847 34.992 65.6847 35.5138C65.6847 36.2206 65.0205 37.8855 65.0205 37.8855L63.583 33.9153C63.8392 33.9058 63.972 33.8346 63.972 33.8346C64.2092 33.8109 64.1808 33.2417 63.9436 33.256C63.9436 33.256 63.2604 33.3129 62.8144 33.3129C62.4017 33.3129 61.709 33.256 61.709 33.256C61.4718 33.2417 61.4433 33.8252 61.6805 33.8346L62.117 33.8726L62.7148 35.4901L61.8561 38.2555ZM66.4354 35.6807L66.425 35.7082C66.0812 36.6132 65.74 37.5259 65.3995 38.4368C65.2795 38.7578 65.1596 39.0785 65.0397 39.3986C66.3064 38.6681 67.1272 37.2688 67.1272 35.7082C67.1272 34.9777 66.9611 34.3042 66.629 33.6923C66.7718 34.7879 66.5525 35.3698 66.4354 35.6807ZM61.0591 39.5457C59.6453 38.8627 58.6917 37.3827 58.6917 35.7083C58.6917 35.0916 58.8008 34.5319 59.0333 34.0054L59.4596 35.1735C59.9914 36.6307 60.5238 38.0897 61.0591 39.5457ZM64.1951 39.7118L62.9711 36.4008C62.7456 37.066 62.5184 37.7312 62.2905 38.3983C62.1349 38.8539 61.9789 39.3105 61.823 39.7687C62.1645 39.873 62.5346 39.9252 62.9094 39.9252C63.3601 39.9252 63.7871 39.8493 64.1951 39.7118Z" clip-rule="evenodd"/></g><path fill="#F0F0F0" d="M327.668 56.507H54.3712V57.8533H327.668V56.507Z" mask="url(#path-20-inside-1_1865_198367)"/></g><path fill="#F4C759" d="M335.943 125.677C340.391 121.466 339.702 105.926 339.702 104.113H340.487C340.487 105.926 339.801 121.466 344.246 125.677C347.527 128.784 349.836 129.969 363.309 129.969V130.678C349.836 130.678 347.527 131.863 344.246 134.97C339.797 139.182 340.487 154.721 340.487 156.534H339.702C339.702 154.721 340.388 139.182 335.943 134.97C332.661 131.863 330.352 130.678 316.879 130.678V129.969C330.352 129.969 332.661 128.784 335.943 125.677Z"/><path fill="#F4C759" d="M296.273 118.445C298.179 116.642 297.884 109.99 297.884 109.213H298.22C298.22 109.99 297.926 116.642 299.831 118.445C301.236 119.775 302.226 120.283 307.998 120.283V120.586C302.226 120.586 301.236 121.093 299.831 122.424C297.925 124.226 298.22 130.879 298.22 131.655H297.884C297.884 130.879 298.178 124.226 296.273 122.424C294.867 121.093 293.878 120.586 288.106 120.586V120.283C293.878 120.283 294.867 119.775 296.273 118.445Z" opacity=".5"/><path fill="#F4C759" d="M304.496 158.655C306.927 156.353 306.55 147.862 306.55 146.871H306.979C306.979 147.862 306.604 156.353 309.033 158.655C310.826 160.353 312.088 161 319.45 161V161.387C312.088 161.387 310.826 162.035 309.033 163.733C306.602 166.034 306.979 174.526 306.979 175.516H306.55C306.55 174.526 306.925 166.034 304.496 163.733C302.703 162.035 301.441 161.387 294.079 161.387V161C301.441 161 302.703 160.353 304.496 158.655Z" opacity=".7"/></g><defs><clipPath id="clip0_1865_198367"><rect width="381" height="194.31" fill="#fff"/></clipPath><clipPath id="clip1_1865_198367"><rect width="272.832" height="167.123" fill="#fff" transform="translate(54.576 27.3745)"/></clipPath><clipPath id="clip2_1865_198367"><rect width="126.102" height="61.481" fill="#fff" transform="translate(127.968 89.7881)"/></clipPath><clipPath id="clip3_1865_198367"><rect width="119.371" height="48.915" fill="#fff" transform="translate(128.173 155.721)"/></clipPath><clipPath id="clip4_1865_198367"><path fill="#fff" d="M54.3712 27.113H327.668V57.1802H54.3712V27.113Z"/></clipPath></defs></svg>